<?xml version="1.0" encoding="UTF-8" standalone="no"?>
<!-- Created with Inkscape (http://www.inkscape.org/) -->

<svg
   version="1.1"
   id="svg2"
   xml:space="preserve"
   width="1821.3333"
   height="1024"
   viewBox="0 0 1821.3333 1024"
   sodipodi:docname="칸그림로고(2022).ai"
   xmlns:inkscape="http://www.inkscape.org/namespaces/inkscape"
   xmlns:sodipodi="http://sodipodi.sourceforge.net/DTD/sodipodi-0.dtd"
   xmlns="http://www.w3.org/2000/svg"
   xmlns:svg="http://www.w3.org/2000/svg"><defs
     id="defs6"><clipPath
       clipPathUnits="userSpaceOnUse"
       id="clipPath40"><path
         d="M 0,768 H 1366 V 0 H 0 Z"
         id="path38" /></clipPath></defs><sodipodi:namedview
     id="namedview4"
     pagecolor="#ffffff"
     bordercolor="#666666"
     borderopacity="1.0"
     inkscape:pageshadow="2"
     inkscape:pageopacity="0.0"
     inkscape:pagecheckerboard="0" /><g
     id="g8"
     inkscape:groupmode="layer"
     inkscape:label="칸그림로고(2022)"
     transform="matrix(1.3333333,0,0,-1.3333333,0,1024)"><path
       d="m 415.992,463.992 h 8.004 V 456 h -8.004 z m 0,40.008 h 8.004 v -8.004 h -8.004 z M 408,471.996 h 7.992 v -8.004 H 408 Z m 0,24 h 7.992 v -8.004 H 408 Z M 384,456 v 48 h 15.996 V 487.992 H 408 v -15.996 h -8.004 V 456 Z"
       style="fill:#39b54a;fill-opacity:1;fill-rule:nonzero;stroke:none"
       id="path10" /><g
       id="g12"
       transform="translate(432,456)"><path
         d="M 0,0 V 39.996 H 7.992 V 48 h 24 V 39.996 H 15.996 V 24 h 15.996 v 15.996 h 8.004 V 0 H 31.992 V 15.996 H 15.996 L 15.996,0 Z"
         style="fill:#39b54a;fill-opacity:1;fill-rule:nonzero;stroke:none"
         id="path14" /></g><g
       id="g16"
       transform="translate(480,456)"><path
         d="M 0,0 V 39.996 H 7.992 V 48 h 24 V 39.996 H 15.996 V 24 h 15.996 v 15.996 h 8.004 V 0 H 31.992 V 15.996 H 15.996 L 15.996,0 Z"
         style="fill:#39b54a;fill-opacity:1;fill-rule:nonzero;stroke:none"
         id="path18" /></g><path
       d="m 559.992,495.996 h 8.004 V 456 h -8.004 z M 528,456 v 48 h 31.992 v -8.004 H 543.996 V 456 Z"
       style="fill:#39b54a;fill-opacity:1;fill-rule:nonzero;stroke:none"
       id="path20" /><path
       d="m 607.992,495.996 h 8.004 v -8.004 h -8.004 z m 0,-32.004 v 8.004 H 600 V 480 h 15.996 v -16.008 z m -24,-7.992 v 7.992 H 576 v 32.004 h 7.992 V 504 h 24 v -8.004 h -15.996 v -32.004 h 15.996 V 456 Z"
       style="fill:#39b54a;fill-opacity:1;fill-rule:nonzero;stroke:none"
       id="path22" /><path
       d="m 655.992,471.996 h 8.004 V 456 h -8.004 z m 0,24 h 8.004 V 480 h -8.004 z M 624,456 v 48 h 31.992 v -8.004 H 639.996 V 480 h 15.996 v -8.004 H 639.996 V 456 Z"
       style="fill:#39b54a;fill-opacity:1;fill-rule:nonzero;stroke:none"
       id="path24" /><g
       id="g26"
       transform="translate(672,456)"><path
         d="M 0,0 V 7.992 H 7.992 V 39.996 H 0 V 48 H 31.992 V 39.996 H 24 V 7.992 h 7.992 V 0 Z"
         style="fill:#39b54a;fill-opacity:1;fill-rule:nonzero;stroke:none"
         id="path28" /></g><g
       id="g30"
       transform="translate(751.9922,456)"><path
         d="M 0,0 V 39.996 H -8.004 V 48 H 8.004 V 0 Z m -15.996,39.996 h 7.992 v -8.004 h -7.992 z M -39.996,0 v 48 h 24 V 39.996 H -24 V 0 Z"
         style="fill:#39b54a;fill-opacity:1;fill-rule:nonzero;stroke:none"
         id="path32" /></g><g
       id="g34"><g
         id="g36"
         clip-path="url(#clipPath40)"><g
           id="g42"
           transform="translate(410.1973,432.9863)"><path
             d="m 0,0 c 0.461,0 0.881,0.065 1.26,0.195 0.378,0.13 0.706,0.323 0.985,0.577 0.277,0.254 0.493,0.562 0.647,0.922 0.153,0.362 0.231,0.773 0.231,1.234 0,0.509 -0.078,0.958 -0.231,1.348 C 2.738,4.666 2.537,4.994 2.289,5.261 2.041,5.526 1.759,5.73 1.446,5.873 1.133,6.015 0.816,6.097 0.497,6.121 H -1.295 V 0 Z M 0.515,6.369 C 0.787,6.416 1.056,6.502 1.322,6.627 1.588,6.751 1.828,6.919 2.041,7.132 2.253,7.345 2.425,7.6 2.555,7.896 2.685,8.19 2.75,8.534 2.75,8.924 2.75,9.22 2.685,9.521 2.555,9.829 2.425,10.136 2.253,10.417 2.041,10.672 1.828,10.926 1.588,11.145 1.322,11.328 1.056,11.511 0.787,11.632 0.515,11.691 H 0.497 c -0.13,0 -0.275,-0.003 -0.435,-0.008 -0.159,-0.006 -0.322,-0.009 -0.487,-0.009 h -0.87 V 6.369 Z M 2.537,6.139 H 2.59 C 2.992,6.009 3.371,5.86 3.726,5.695 4.081,5.529 4.391,5.328 4.657,5.092 4.923,4.855 5.13,4.571 5.278,4.24 5.426,3.909 5.5,3.513 5.5,3.052 5.5,2.318 5.349,1.733 5.047,1.296 4.746,0.857 4.355,0.523 3.876,0.293 3.397,0.062 2.868,-0.088 2.289,-0.159 1.709,-0.23 1.142,-0.266 0.585,-0.266 H -4.204 V 0 h 0.692 v 11.691 h -0.692 v 0.302 h 3.796 c 0.343,0 0.716,-0.006 1.118,-0.017 C 1.112,11.964 1.514,11.928 1.916,11.869 2.318,11.81 2.703,11.718 3.069,11.594 3.436,11.47 3.758,11.298 4.036,11.079 4.314,10.86 4.539,10.583 4.71,10.246 4.882,9.908 4.968,9.497 4.968,9.013 4.968,8.279 4.757,7.687 4.338,7.238 3.918,6.789 3.341,6.481 2.608,6.316 H 2.537 Z"
             style="fill:#ff00ff;fill-opacity:1;fill-rule:nonzero;stroke:none"
             id="path44" /></g><g
           id="g46"
           transform="translate(426.0215,438.6816)"><path
             d="M 0,0 C 0.556,0 1.044,0.086 1.464,0.257 1.883,0.429 2.232,0.656 2.511,0.94 2.788,1.224 2.999,1.549 3.14,1.916 3.282,2.282 3.353,2.655 3.353,3.033 3.353,3.4 3.285,3.761 3.149,4.115 3.013,4.471 2.812,4.787 2.546,5.064 2.28,5.343 1.943,5.567 1.535,5.739 1.127,5.91 0.657,5.996 0.125,5.996 H -0.869 V 0 Z m 6.476,-5.819 c -0.391,-0.142 -0.84,-0.213 -1.349,-0.213 -0.615,0 -1.1,0.074 -1.455,0.221 -0.354,0.149 -0.629,0.359 -0.824,0.63 -0.196,0.273 -0.328,0.595 -0.4,0.967 -0.071,0.373 -0.124,0.784 -0.159,1.234 0,0.046 -0.003,0.088 -0.009,0.124 C 2.274,-2.821 2.271,-2.785 2.271,-2.75 2.235,-2.431 2.194,-2.126 2.147,-1.836 2.1,-1.547 2.014,-1.292 1.89,-1.073 1.766,-0.854 1.582,-0.674 1.34,-0.532 1.097,-0.391 0.775,-0.313 0.373,-0.302 H -0.869 V -2.98 c 0,-0.438 -0.003,-0.873 -0.009,-1.304 -0.006,-0.433 -0.009,-0.873 -0.009,-1.322 v -0.089 h 0.816 v -0.266 h -3.973 v 0.266 h 0.851 V 5.996 H -4.044 V 6.298 H 0.532 C 1.076,6.298 1.641,6.25 2.227,6.156 2.812,6.062 3.35,5.887 3.841,5.633 4.332,5.378 4.734,5.026 5.047,4.577 5.361,4.127 5.518,3.548 5.518,2.839 5.518,2.424 5.453,2.061 5.322,1.747 5.192,1.434 5.015,1.162 4.79,0.932 4.565,0.7 4.296,0.512 3.983,0.363 3.669,0.216 3.33,0.095 2.963,0 H 2.892 v -0.16 h 0.053 c 0.367,-0.201 0.654,-0.417 0.861,-0.648 0.206,-0.23 0.369,-0.475 0.487,-0.736 0.119,-0.26 0.198,-0.532 0.24,-0.815 0.041,-0.285 0.08,-0.58 0.115,-0.888 0,-0.035 0.003,-0.07 0.009,-0.107 0.006,-0.035 0.009,-0.076 0.009,-0.124 0,-0.083 0.006,-0.141 0.018,-0.176 0,-0.025 0.003,-0.051 0.008,-0.08 0.006,-0.03 0.01,-0.057 0.01,-0.08 0,-0.26 0.011,-0.506 0.035,-0.737 0.024,-0.23 0.071,-0.431 0.142,-0.602 0.071,-0.172 0.168,-0.309 0.292,-0.409 0.125,-0.1 0.287,-0.151 0.489,-0.151 0.189,0 0.337,0.009 0.443,0.027 0.106,0.018 0.201,0.039 0.284,0.062 z"
             style="fill:#ff00ff;fill-opacity:1;fill-rule:nonzero;stroke:none"
             id="path48" /></g><g
           id="g50"
           transform="translate(443.9746,437.1377)"><path
             d="M 0,0 -1.703,4.702 H -1.88 C -2.164,3.921 -2.448,3.138 -2.732,2.351 -3.016,1.564 -3.282,0.781 -3.53,0 V -0.124 H 0 Z M 4.719,-4.417 H 0.692 v 0.266 h 0.816 v 0.106 l -1.331,3.549 v 0.07 h -3.903 v -0.07 l -1.241,-3.549 v -0.106 h 0.922 v -0.266 h -1.969 v 0.284 l 0.568,-0.018 h 0.089 v 0.071 l 4.293,11.922 h 0.638 L 4.081,-4.08 v -0.071 h 0.638 z"
             style="fill:#ff00ff;fill-opacity:1;fill-rule:nonzero;stroke:none"
             id="path52" /></g><g
           id="g54"
           transform="translate(463.312,432.7207)"><path
             d="m 0,0 -7.664,10.804 h -0.16 V 0.266 h 0.852 V 0 h -1.987 v 0.266 h 0.798 v 11.691 h -0.798 v 0.302 h 3.247 l 6.12,-8.711 h 0.159 v 8.391 h -0.798 v 0.32 H 1.81 v -0.32 H 0.976 L 0.976,0 Z"
             style="fill:#ff00ff;fill-opacity:1;fill-rule:nonzero;stroke:none"
             id="path56" /></g><g
           id="g58"
           transform="translate(476.7949,432.9863)"><path
             d="M 0,0 C 0.709,0.178 1.315,0.426 1.818,0.745 2.321,1.064 2.732,1.47 3.051,1.961 3.371,2.451 3.604,3.028 3.752,3.69 3.9,4.353 3.974,5.115 3.974,5.979 3.974,6.688 3.885,7.374 3.708,8.037 3.53,8.699 3.27,9.288 2.927,9.802 c -0.343,0.514 -0.76,0.94 -1.251,1.277 -0.49,0.338 -1.055,0.541 -1.694,0.612 -0.071,0 -0.163,-0.003 -0.275,-0.008 -0.112,-0.006 -0.21,-0.009 -0.292,-0.009 H -1.756 L -1.756,0 Z m -0.373,11.993 c 1.005,0 1.928,-0.097 2.768,-0.293 C 3.234,11.505 3.959,11.171 4.568,10.698 5.177,10.225 5.653,9.592 5.996,8.8 6.339,8.007 6.511,7.014 6.511,5.819 6.511,4.66 6.342,3.69 6.005,2.91 5.668,2.129 5.198,1.506 4.595,1.038 3.992,0.571 3.276,0.237 2.448,0.036 1.62,-0.165 0.715,-0.266 -0.266,-0.266 H -5.021 V 0 h 0.887 v 11.674 h -0.887 v 0.319 z"
             style="fill:#ff00ff;fill-opacity:1;fill-rule:nonzero;stroke:none"
             id="path60" /></g><g
           id="g62"
           transform="translate(506.563,436.3926)"><path
             d="m 0,0 c 0.023,-0.579 -0.065,-1.103 -0.266,-1.569 -0.201,-0.468 -0.482,-0.868 -0.843,-1.199 -0.361,-0.331 -0.795,-0.585 -1.304,-0.762 -0.508,-0.177 -1.064,-0.266 -1.668,-0.266 -0.461,0 -0.88,0.044 -1.259,0.133 -0.379,0.089 -0.733,0.207 -1.064,0.354 -0.332,0.149 -0.639,0.314 -0.923,0.497 -0.284,0.184 -0.562,0.37 -0.834,0.559 h -0.142 v -1.419 h -0.372 l 0.018,4.506 h 0.301 c 0.036,-0.603 0.145,-1.162 0.328,-1.676 0.184,-0.514 0.45,-0.958 0.799,-1.331 0.349,-0.372 0.786,-0.662 1.312,-0.869 0.527,-0.207 1.156,-0.311 1.89,-0.311 0.39,0 0.748,0.041 1.073,0.124 0.326,0.083 0.609,0.205 0.852,0.365 0.242,0.159 0.431,0.345 0.567,0.558 0.136,0.213 0.204,0.455 0.204,0.728 0,0.188 -0.035,0.366 -0.106,0.532 -0.047,0.142 -0.148,0.28 -0.302,0.417 -0.154,0.136 -0.345,0.263 -0.576,0.381 -0.231,0.118 -0.488,0.233 -0.772,0.346 -0.284,0.112 -0.58,0.221 -0.887,0.328 L -4.417,0.621 C -4.914,0.811 -5.42,1.023 -5.934,1.26 -6.449,1.496 -6.91,1.786 -7.318,2.129 -7.726,2.473 -8.061,2.88 -8.32,3.354 -8.581,3.826 -8.71,4.4 -8.71,5.074 c 0,0.556 0.103,1.062 0.31,1.517 0.207,0.455 0.49,0.846 0.851,1.171 0.361,0.325 0.784,0.579 1.269,0.762 0.485,0.184 1.011,0.288 1.579,0.311 0.555,0.012 1.118,-0.089 1.685,-0.302 C -2.448,8.32 -1.81,7.925 -1.1,7.345 h 0.142 v 0.816 h 0.319 V 4.879 h -0.319 c -0.106,0.532 -0.249,1.017 -0.426,1.455 -0.177,0.437 -0.414,0.815 -0.709,1.135 -0.296,0.319 -0.663,0.565 -1.1,0.736 -0.438,0.172 -0.964,0.258 -1.579,0.258 -0.402,0 -0.781,-0.051 -1.136,-0.151 C -6.262,8.211 -6.573,8.066 -6.839,7.877 -7.105,7.687 -7.315,7.454 -7.469,7.177 -7.623,6.898 -7.706,6.576 -7.717,6.21 -7.646,5.937 -7.522,5.695 -7.345,5.482 -7.167,5.27 -6.945,5.077 -6.679,4.905 -6.413,4.734 -6.118,4.58 -5.792,4.444 -5.467,4.309 -5.121,4.175 -4.754,4.045 l 0.266,-0.107 c 0.437,-0.165 0.905,-0.36 1.401,-0.584 0.497,-0.225 0.964,-0.495 1.401,-0.808 0.438,-0.314 0.811,-0.68 1.118,-1.1 C -0.26,1.026 -0.071,0.544 0,0"
             style="fill:#ff00ff;fill-opacity:1;fill-rule:nonzero;stroke:none"
             id="path64" /></g><g
           id="g66"
           transform="translate(514.1738,444.6777)"><path
             d="M 0,0 C -0.792,0 -1.337,-0.101 -1.632,-0.302 -1.75,-0.396 -1.866,-0.538 -1.978,-0.728 -2.091,-0.917 -2.182,-1.153 -2.253,-1.437 -2.313,-1.638 -2.351,-1.854 -2.369,-2.084 -2.386,-2.315 -2.407,-2.555 -2.431,-2.803 L -2.484,-3.37 h -0.177 l 0.106,3.672 H 7.203 L 7.309,-3.37 H 7.114 c 0,0.78 -0.053,1.386 -0.16,1.818 C 6.848,-1.12 6.659,-0.792 6.387,-0.567 6.256,-0.449 6.114,-0.352 5.961,-0.274 5.807,-0.198 5.626,-0.139 5.42,-0.098 5.212,-0.056 4.967,-0.029 4.684,-0.018 4.399,-0.006 4.062,0 3.672,0 H 3.583 v -11.691 h 0.816 v -0.266 h -3.92 v 0.266 H 1.171 V 0 Z"
             style="fill:#ff00ff;fill-opacity:1;fill-rule:nonzero;stroke:none"
             id="path68" /></g><g
           id="g70"
           transform="translate(531.9673,438.6816)"><path
             d="M 0,0 C 0.556,0 1.044,0.086 1.464,0.257 1.883,0.429 2.232,0.656 2.511,0.94 2.788,1.224 2.999,1.549 3.14,1.916 3.282,2.282 3.353,2.655 3.353,3.033 3.353,3.4 3.285,3.761 3.149,4.115 3.013,4.471 2.812,4.787 2.546,5.064 2.28,5.343 1.943,5.567 1.535,5.739 1.127,5.91 0.657,5.996 0.125,5.996 H -0.869 V 0 Z m 6.476,-5.819 c -0.391,-0.142 -0.84,-0.213 -1.349,-0.213 -0.615,0 -1.1,0.074 -1.455,0.221 -0.354,0.149 -0.629,0.359 -0.824,0.63 -0.196,0.273 -0.328,0.595 -0.4,0.967 -0.071,0.373 -0.124,0.784 -0.159,1.234 0,0.046 -0.003,0.088 -0.009,0.124 C 2.274,-2.821 2.271,-2.785 2.271,-2.75 2.235,-2.431 2.194,-2.126 2.147,-1.836 2.1,-1.547 2.014,-1.292 1.89,-1.073 1.766,-0.854 1.582,-0.674 1.34,-0.532 1.097,-0.391 0.775,-0.313 0.373,-0.302 H -0.869 V -2.98 c 0,-0.438 -0.003,-0.873 -0.009,-1.304 -0.006,-0.433 -0.009,-0.873 -0.009,-1.322 v -0.089 h 0.816 v -0.266 h -3.973 v 0.266 h 0.851 V 5.996 H -4.044 V 6.298 H 0.532 C 1.076,6.298 1.641,6.25 2.227,6.156 2.812,6.062 3.35,5.887 3.841,5.633 4.332,5.378 4.734,5.026 5.047,4.577 5.361,4.127 5.518,3.548 5.518,2.839 5.518,2.424 5.453,2.061 5.322,1.747 5.192,1.434 5.015,1.162 4.79,0.932 4.565,0.7 4.296,0.512 3.983,0.363 3.669,0.216 3.33,0.095 2.963,0 H 2.892 v -0.16 h 0.053 c 0.367,-0.201 0.654,-0.417 0.861,-0.648 0.206,-0.23 0.369,-0.475 0.487,-0.736 0.119,-0.26 0.198,-0.532 0.24,-0.815 0.041,-0.285 0.08,-0.58 0.115,-0.888 0,-0.035 0.003,-0.07 0.009,-0.107 0.006,-0.035 0.009,-0.076 0.009,-0.124 0,-0.083 0.006,-0.141 0.018,-0.176 0,-0.025 0.003,-0.051 0.008,-0.08 0.006,-0.03 0.01,-0.057 0.01,-0.08 0,-0.26 0.011,-0.506 0.035,-0.737 0.024,-0.23 0.071,-0.431 0.142,-0.602 0.071,-0.172 0.168,-0.309 0.292,-0.409 0.125,-0.1 0.287,-0.151 0.489,-0.151 0.189,0 0.337,0.009 0.443,0.027 0.106,0.018 0.201,0.039 0.284,0.062 z"
             style="fill:#ff00ff;fill-opacity:1;fill-rule:nonzero;stroke:none"
             id="path72" /></g><g
           id="g74"
           transform="translate(549.4419,433.04)"><path
             d="M 0,0 C 1.549,0 2.501,0.142 2.856,0.426 3.247,0.71 3.513,1.059 3.654,1.473 3.832,1.934 3.92,2.537 3.92,3.282 h 0.338 v -3.601 h -9.332 v 0.265 h 0.745 v 11.692 h -0.745 v 0.301 H 3.938 L 4.222,8.924 H 4.027 C 3.885,10.65 3.306,11.531 2.289,11.566 1.377,11.603 0.609,11.62 -0.018,11.62 h -1.88 v -5.5 h 0.71 c 0.472,0 0.883,0.015 1.232,0.045 0.349,0.029 0.642,0.112 0.878,0.248 0.237,0.136 0.414,0.349 0.533,0.639 0.118,0.29 0.177,0.694 0.177,1.216 H 1.827 V 3.619 H 1.632 c 0,0.473 -0.05,0.849 -0.151,1.126 C 1.381,5.023 1.239,5.233 1.056,5.375 0.872,5.518 0.65,5.608 0.39,5.65 0.13,5.691 -0.16,5.713 -0.479,5.713 h -1.419 l 0,-5.713 z"
             style="fill:#ff00ff;fill-opacity:1;fill-rule:nonzero;stroke:none"
             id="path76" /></g><g
           id="g78"
           transform="translate(565.8159,437.1377)"><path
             d="M 0,0 -1.703,4.702 H -1.88 C -2.164,3.921 -2.448,3.138 -2.732,2.351 -3.016,1.564 -3.282,0.781 -3.53,0 V -0.124 H 0 Z M 4.719,-4.417 H 0.692 v 0.266 h 0.816 v 0.106 l -1.331,3.549 v 0.07 h -3.903 v -0.07 l -1.241,-3.549 v -0.106 h 0.922 v -0.266 h -1.969 v 0.284 l 0.568,-0.018 h 0.089 v 0.071 l 4.293,11.922 h 0.638 L 4.081,-4.08 v -0.071 h 0.638 z"
             style="fill:#ff00ff;fill-opacity:1;fill-rule:nonzero;stroke:none"
             id="path80" /></g><g
           id="g82"
           transform="translate(589.2515,444.6777)"><path
             d="M 0,0 H -0.639 V -11.691 H 0 v -0.266 h -3.957 v 0.284 h 0.834 V -1.455 H -3.3 l -4.116,-10.094 -4.311,10.2 h -0.177 v -10.324 h 0.55 c 0.094,0 0.168,-0.003 0.222,-0.009 0.053,-0.006 0.127,-0.009 0.221,-0.009 v -0.266 h -2.146 v 0.284 h 0.833 v 11.655 h -0.461 c -0.059,0 -0.109,0.003 -0.15,0.009 C -12.877,-0.003 -12.933,0 -13.004,0 v 0.302 h 3.122 l 3.353,-8.179 h 0.177 c 0.213,0.532 0.432,1.059 0.657,1.579 0.225,0.521 0.449,1.047 0.674,1.579 0.355,0.84 0.707,1.677 1.056,2.51 0.348,0.834 0.689,1.671 1.02,2.511 l 2.945,0 z"
             style="fill:#ff00ff;fill-opacity:1;fill-rule:nonzero;stroke:none"
             id="path84" /></g><g
           id="g86"
           transform="translate(595.9038,444.9795)"><path
             d="M 0,0 H 3.69 V -0.302 H 2.909 V -11.993 H 3.69 v -0.266 H 0 v 0.266 h 0.727 v 11.691 l -0.727,0 z"
             style="fill:#ff00ff;fill-opacity:1;fill-rule:nonzero;stroke:none"
             id="path88" /></g><g
           id="g90"
           transform="translate(615.2056,432.7207)"><path
             d="m 0,0 -7.664,10.804 h -0.16 V 0.266 h 0.852 V 0 h -1.987 v 0.266 h 0.798 v 11.691 h -0.798 v 0.302 h 3.247 l 6.12,-8.711 h 0.159 v 8.391 h -0.798 v 0.32 H 1.81 v -0.32 H 0.976 L 0.976,0 Z"
             style="fill:#ff00ff;fill-opacity:1;fill-rule:nonzero;stroke:none"
             id="path92" /></g><g
           id="g94"
           transform="translate(634.9502,439.2139)"><path
             d="m 0,0 v -0.302 h -0.852 v -0.089 c 0,-0.532 -0.002,-1.049 -0.008,-1.551 -0.006,-0.503 -0.009,-1.009 -0.009,-1.518 -0.012,-0.508 -0.018,-1.014 -0.018,-1.517 v -1.534 h -0.372 v 1.171 c -0.403,0.07 -0.793,0.047 -1.171,-0.071 -0.379,-0.118 -0.754,-0.26 -1.127,-0.426 -0.372,-0.166 -0.748,-0.322 -1.127,-0.47 -0.378,-0.148 -0.768,-0.221 -1.17,-0.221 -0.875,0 -1.668,0.147 -2.377,0.443 -0.71,0.295 -1.319,0.709 -1.828,1.241 -0.508,0.532 -0.899,1.171 -1.17,1.916 -0.273,0.745 -0.409,1.574 -0.409,2.485 0,0.851 0.139,1.664 0.417,2.439 0.278,0.775 0.671,1.46 1.18,2.058 0.508,0.596 1.118,1.073 1.827,1.427 0.71,0.356 1.49,0.533 2.342,0.533 0.757,0 1.443,-0.186 2.058,-0.559 0.615,-0.372 1.135,-0.808 1.561,-1.304 h 0.16 v 1.011 h 0.355 V 1.987 H -2.093 C -2.164,2.437 -2.28,2.874 -2.439,3.3 -2.599,3.726 -2.812,4.104 -3.078,4.435 -3.344,4.766 -3.672,5.032 -4.062,5.233 -4.453,5.435 -4.908,5.535 -5.429,5.535 -5.984,5.535 -6.458,5.443 -6.848,5.26 -7.238,5.077 -7.566,4.832 -7.833,4.525 -8.099,4.218 -8.312,3.863 -8.471,3.462 -8.631,3.061 -8.755,2.647 -8.844,2.223 -8.932,1.797 -8.989,1.372 -9.012,0.947 -9.036,0.521 -9.047,0.126 -9.047,-0.239 c 0,-0.532 0.02,-1.119 0.062,-1.763 0.041,-0.644 0.197,-1.267 0.47,-1.869 0.118,-0.295 0.263,-0.576 0.434,-0.842 0.172,-0.265 0.37,-0.495 0.595,-0.69 0.224,-0.195 0.481,-0.352 0.771,-0.469 0.29,-0.118 0.612,-0.178 0.967,-0.178 0.733,0 1.331,0.168 1.792,0.504 0.461,0.336 0.692,0.882 0.692,1.636 v 3.537 H -5.766 V 0 Z"
             style="fill:#ff00ff;fill-opacity:1;fill-rule:nonzero;stroke:none"
             id="path96" /></g><g
           id="g98"
           transform="translate(659.1665,441.751)"><path
             d="m 0,0 h -0.355 c 0,0.732 -0.13,1.384 -0.39,1.951 -0.284,0.651 -0.757,0.976 -1.42,0.976 h -4.488 v -5.499 h 0.089 c 0.603,0 1.1,0.002 1.49,0.009 0.39,0.005 0.686,0.014 0.887,0.026 0.378,0.023 0.716,0.112 1.011,0.266 h 0.018 c 0.248,0.177 0.441,0.414 0.577,0.709 0.136,0.296 0.204,0.71 0.204,1.243 h 0.248 v -4.808 h -0.248 c 0,0.484 -0.062,0.866 -0.186,1.144 -0.125,0.278 -0.288,0.5 -0.488,0.666 -0.213,0.129 -0.518,0.227 -0.914,0.292 -0.396,0.065 -0.802,0.103 -1.215,0.115 -0.142,0 -0.29,-0.003 -0.444,-0.009 -0.154,-0.006 -0.298,-0.009 -0.435,-0.009 h -0.345 -0.16 -0.089 v -5.837 h 1.278 V -9.03 h -4.4 v 0.265 H -9.03 V 2.927 h -0.745 v 0.302 h 9.402 z"
             style="fill:#ff00ff;fill-opacity:1;fill-rule:nonzero;stroke:none"
             id="path100" /></g><g
           id="g102"
           transform="translate(666.7593,443.7021)"><path
             d="m 0,0 c -0.332,-0.284 -0.571,-0.589 -0.719,-0.914 -0.148,-0.325 -0.221,-0.677 -0.221,-1.055 0,-0.415 0.076,-0.849 0.23,-1.304 0.154,-0.456 0.343,-0.902 0.568,-1.339 0.225,-0.438 0.47,-0.852 0.736,-1.242 0.266,-0.391 0.517,-0.728 0.754,-1.011 0.249,-0.332 0.55,-0.693 0.905,-1.083 0.354,-0.39 0.739,-0.754 1.153,-1.091 0.414,-0.337 0.848,-0.618 1.304,-0.843 0.455,-0.224 0.908,-0.337 1.357,-0.337 0.272,0 0.538,0.051 0.798,0.152 0.26,0.099 0.521,0.245 0.781,0.434 0.591,0.496 0.887,1.123 0.887,1.88 0,0.521 -0.118,1.035 -0.355,1.544 -0.224,0.556 -0.506,1.091 -0.843,1.605 -0.336,0.515 -0.665,0.973 -0.984,1.375 L 6.12,-2.839 5.712,-2.395 C 5.405,-2.064 5.059,-1.706 4.674,-1.321 4.29,-0.937 3.867,-0.592 3.406,-0.284 3.075,-0.048 2.738,0.142 2.395,0.284 2.052,0.426 1.697,0.497 1.331,0.497 0.881,0.497 0.437,0.331 0,0 M -0.16,0.213 C 0.29,0.591 0.766,0.86 1.268,1.021 1.771,1.18 2.288,1.26 2.82,1.26 3.317,1.26 3.811,1.197 4.302,1.073 4.792,0.949 5.269,0.774 5.73,0.55 6.191,0.325 6.626,0.056 7.034,-0.257 7.442,-0.57 7.806,-0.923 8.125,-1.312 8.61,-1.951 8.982,-2.649 9.243,-3.406 c 0.259,-0.757 0.39,-1.55 0.39,-2.377 0,-0.793 -0.142,-1.544 -0.426,-2.253 -0.284,-0.71 -0.745,-1.343 -1.384,-1.899 -0.437,-0.355 -0.922,-0.612 -1.454,-0.771 -0.533,-0.16 -1.082,-0.24 -1.65,-0.24 -1.006,0 -1.981,0.236 -2.927,0.71 -0.45,0.224 -0.873,0.506 -1.269,0.842 -0.396,0.337 -0.748,0.712 -1.055,1.126 -0.45,0.557 -0.799,1.207 -1.047,1.953 -0.249,0.745 -0.373,1.519 -0.373,2.324 0,0.827 0.142,1.611 0.426,2.35 0.284,0.739 0.739,1.357 1.366,1.854"
             style="fill:#ff00ff;fill-opacity:1;fill-rule:nonzero;stroke:none"
             id="path104" /></g><g
           id="g106"
           transform="translate(686.8057,438.6816)"><path
             d="M 0,0 C 0.556,0 1.044,0.086 1.464,0.257 1.884,0.429 2.232,0.656 2.511,0.94 2.788,1.224 2.999,1.549 3.14,1.916 3.282,2.282 3.353,2.655 3.353,3.033 3.353,3.4 3.285,3.761 3.149,4.115 3.013,4.471 2.812,4.787 2.546,5.064 2.28,5.343 1.942,5.567 1.534,5.739 1.127,5.91 0.657,5.996 0.124,5.996 H -0.869 V 0 Z m 6.476,-5.819 c -0.391,-0.142 -0.84,-0.213 -1.348,-0.213 -0.615,0 -1.101,0.074 -1.455,0.221 -0.356,0.149 -0.63,0.359 -0.825,0.63 -0.196,0.273 -0.328,0.595 -0.4,0.967 -0.07,0.373 -0.124,0.784 -0.16,1.234 0,0.046 -0.002,0.088 -0.008,0.124 C 2.274,-2.821 2.271,-2.785 2.271,-2.75 2.235,-2.431 2.194,-2.126 2.147,-1.836 2.1,-1.547 2.014,-1.292 1.89,-1.073 1.766,-0.854 1.582,-0.674 1.34,-0.532 1.097,-0.391 0.774,-0.313 0.372,-0.302 H -0.869 V -2.98 c 0,-0.438 -0.003,-0.873 -0.009,-1.304 -0.006,-0.433 -0.009,-0.873 -0.009,-1.322 v -0.089 h 0.816 v -0.266 h -3.973 v 0.266 h 0.851 V 5.996 H -4.044 V 6.298 H 0.532 C 1.076,6.298 1.642,6.25 2.227,6.156 2.812,6.062 3.351,5.887 3.841,5.633 4.331,5.378 4.733,5.026 5.048,4.577 5.36,4.127 5.518,3.548 5.518,2.839 5.518,2.424 5.452,2.061 5.322,1.747 5.192,1.434 5.015,1.162 4.79,0.932 4.565,0.7 4.296,0.512 3.983,0.363 3.669,0.216 3.329,0.095 2.963,0 H 2.892 v -0.16 h 0.053 c 0.367,-0.201 0.654,-0.417 0.861,-0.648 0.207,-0.23 0.369,-0.475 0.488,-0.736 0.117,-0.26 0.197,-0.532 0.239,-0.815 0.041,-0.285 0.079,-0.58 0.115,-0.888 0,-0.035 0.003,-0.07 0.009,-0.107 0.006,-0.035 0.009,-0.076 0.009,-0.124 0,-0.083 0.006,-0.141 0.018,-0.176 0,-0.025 0.003,-0.051 0.008,-0.08 0.006,-0.03 0.01,-0.057 0.01,-0.08 0,-0.26 0.012,-0.506 0.035,-0.737 0.024,-0.23 0.071,-0.431 0.142,-0.602 0.071,-0.172 0.169,-0.309 0.292,-0.409 0.125,-0.1 0.287,-0.151 0.488,-0.151 0.19,0 0.338,0.009 0.444,0.027 0.107,0.018 0.201,0.039 0.284,0.062 z"
             style="fill:#ff00ff;fill-opacity:1;fill-rule:nonzero;stroke:none"
             id="path108" /></g><g
           id="g110"
           transform="translate(712.3164,437.1377)"><path
             d="M 0,0 -1.703,4.702 H -1.881 C -2.164,3.921 -2.448,3.138 -2.732,2.351 -3.016,1.564 -3.281,0.781 -3.53,0 V -0.124 H 0 Z M 4.719,-4.417 H 0.691 v 0.266 h 0.817 v 0.106 l -1.33,3.549 v 0.07 h -3.904 v -0.07 l -1.241,-3.549 v -0.106 h 0.922 v -0.266 h -1.969 v 0.284 l 0.568,-0.018 h 0.089 v 0.071 l 4.293,11.922 h 0.638 L 4.08,-4.08 v -0.071 h 0.639 z"
             style="fill:#ff00ff;fill-opacity:1;fill-rule:nonzero;stroke:none"
             id="path112" /></g><g
           id="g114"
           transform="translate(730.9082,436.4287)"><path
             d="m 0,0 v -3.708 h -8.213 v 0.266 H -7.38 V 8.249 h -0.833 v 0.302 h 4.115 V 8.249 H -5.109 V -3.442 h 1.632 c 0.343,0 0.663,0.005 0.957,0.018 0.297,0.012 0.557,0.029 0.782,0.053 0.52,0.059 0.91,0.491 1.171,1.295 0.094,0.379 0.171,0.742 0.23,1.092 0.06,0.348 0.089,0.676 0.089,0.984 z"
             style="fill:#ff00ff;fill-opacity:1;fill-rule:nonzero;stroke:none"
             id="path116" /></g><g
           id="g118"
           transform="translate(745.5625,436.4287)"><path
             d="m 0,0 v -3.708 h -8.215 v 0.266 h 0.834 V 8.249 h -0.834 v 0.302 h 4.116 V 8.249 h -1.01 V -3.442 h 1.63 c 0.344,0 0.664,0.005 0.959,0.018 0.295,0.012 0.556,0.029 0.781,0.053 0.52,0.059 0.911,0.491 1.171,1.295 0.094,0.379 0.172,0.742 0.23,1.092 0.059,0.348 0.089,0.676 0.089,0.984 z"
             style="fill:#ff00ff;fill-opacity:1;fill-rule:nonzero;stroke:none"
             id="path120" /></g></g></g></g></svg>
